<?xml version="1.0" encoding="UTF-8" standalone="no"?>
<!DOCTYPE svg PUBLIC "-//W3C//DTD SVG 1.1//EN"
 "http://www.w3.org/Graphics/SVG/1.1/DTD/svg11.dtd">
<!-- Generated by graphviz version 12.1.2 (20240928.0832)
 -->
<!-- Title: src/app/app.cpp Pages: 1 -->
<svg width="248pt" height="204pt"
 viewBox="0.00 0.00 248.25 204.25" xmlns="http://www.w3.org/2000/svg" xmlns:xlink="http://www.w3.org/1999/xlink">
<g id="graph0" class="graph" transform="scale(1 1) rotate(0) translate(4 200.25)">
<title>src/app/app.cpp</title>
<!-- Node1 -->
<g id="Node000001" class="node">
<title>Node1</title>
<g id="a_Node000001"><a xlink:title=" ">
<polygon fill="#999999" stroke="#666666" points="129.25,-196.25 44.25,-196.25 44.25,-177 129.25,-177 129.25,-196.25"/>
<text text-anchor="middle" x="86.75" y="-182.75" font-family="Helvetica,sans-Serif" font-size="10.00">src/app/app.cpp</text>
</a>
</g>
</g>
<!-- Node2 -->
<g id="Node000002" class="node">
<title>Node2</title>
<g id="a_Node000002"><a xlink:href="binary__search__tree_8hpp.html" target="_top" xlink:title="Binary Search Tree.">
<polygon fill="white" stroke="#666666" points="173.12,-85.75 54.38,-85.75 54.38,-55.25 173.12,-55.25 173.12,-85.75"/>
<text text-anchor="start" x="62.38" y="-72.25" font-family="Helvetica,sans-Serif" font-size="10.00">../binary_search_tree</text>
<text text-anchor="middle" x="113.75" y="-61" font-family="Helvetica,sans-Serif" font-size="10.00">/binary_search_tree.hpp</text>
</a>
</g>
</g>
<!-- Node1&#45;&gt;Node2 -->
<g id="edge1_Node000001_Node000002" class="edge">
<title>Node1&#45;&gt;Node2</title>
<g id="a_edge1_Node000001_Node000002"><a xlink:title=" ">
<path fill="none" stroke="#63b8ff" d="M88.87,-176.67C92.88,-159.7 101.73,-122.31 107.72,-97.01"/>
<polygon fill="#63b8ff" stroke="#63b8ff" points="111.07,-98.03 109.97,-87.49 104.26,-96.42 111.07,-98.03"/>
</a>
</g>
</g>
<!-- Node7 -->
<g id="Node000007" class="node">
<title>Node7</title>
<g id="a_Node000007"><a xlink:href="app_8hpp.html" target="_top" xlink:title=" ">
<polygon fill="white" stroke="#666666" points="85.62,-141 35.88,-141 35.88,-121.75 85.62,-121.75 85.62,-141"/>
<text text-anchor="middle" x="60.75" y="-127.5" font-family="Helvetica,sans-Serif" font-size="10.00">app.hpp</text>
</a>
</g>
</g>
<!-- Node1&#45;&gt;Node7 -->
<g id="edge6_Node000001_Node000007" class="edge">
<title>Node1&#45;&gt;Node7</title>
<g id="a_edge6_Node000001_Node000007"><a xlink:title=" ">
<path fill="none" stroke="#63b8ff" d="M82.46,-176.83C79.13,-170.01 74.39,-160.31 70.19,-151.7"/>
<polygon fill="#63b8ff" stroke="#63b8ff" points="73.33,-150.17 65.8,-142.72 67.04,-153.24 73.33,-150.17"/>
</a>
</g>
</g>
<!-- Node3 -->
<g id="Node000003" class="node">
<title>Node3</title>
<g id="a_Node000003"><a xlink:title=" ">
<polygon fill="#e0e0e0" stroke="#999999" points="53.5,-19.25 0,-19.25 0,0 53.5,0 53.5,-19.25"/>
<text text-anchor="middle" x="26.75" y="-5.75" font-family="Helvetica,sans-Serif" font-size="10.00">iostream</text>
</a>
</g>
</g>
<!-- Node2&#45;&gt;Node3 -->
<g id="edge2_Node000002_Node000003" class="edge">
<title>Node2&#45;&gt;Node3</title>
<g id="a_edge2_Node000002_Node000003"><a xlink:title=" ">
<path fill="none" stroke="#63b8ff" d="M92.24,-54.95C79.25,-46.15 62.71,-34.96 49.5,-26.02"/>
<polygon fill="#63b8ff" stroke="#63b8ff" points="51.66,-23.26 41.42,-20.55 47.74,-29.05 51.66,-23.26"/>
</a>
</g>
</g>
<!-- Node4 -->
<g id="Node000004" class="node">
<title>Node4</title>
<g id="a_Node000004"><a xlink:title=" ">
<polygon fill="#e0e0e0" stroke="#999999" points="111.75,-19.25 71.75,-19.25 71.75,0 111.75,0 111.75,-19.25"/>
<text text-anchor="middle" x="91.75" y="-5.75" font-family="Helvetica,sans-Serif" font-size="10.00">string</text>
</a>
</g>
</g>
<!-- Node2&#45;&gt;Node4 -->
<g id="edge3_Node000002_Node000004" class="edge">
<title>Node2&#45;&gt;Node4</title>
<g id="a_edge3_Node000002_Node000004"><a xlink:title=" ">
<path fill="none" stroke="#63b8ff" d="M108.31,-54.95C105.54,-47.53 102.13,-38.41 99.13,-30.38"/>
<polygon fill="#63b8ff" stroke="#63b8ff" points="102.45,-29.26 95.67,-21.12 95.89,-31.71 102.45,-29.26"/>
</a>
</g>
</g>
<!-- Node5 -->
<g id="Node000005" class="node">
<title>Node5</title>
<g id="a_Node000005"><a xlink:title=" ">
<polygon fill="#e0e0e0" stroke="#999999" points="179.25,-19.25 130.25,-19.25 130.25,0 179.25,0 179.25,-19.25"/>
<text text-anchor="middle" x="154.75" y="-5.75" font-family="Helvetica,sans-Serif" font-size="10.00">fstream</text>
</a>
</g>
</g>
<!-- Node2&#45;&gt;Node5 -->
<g id="edge4_Node000002_Node000005" class="edge">
<title>Node2&#45;&gt;Node5</title>
<g id="a_edge4_Node000002_Node000005"><a xlink:title=" ">
<path fill="none" stroke="#63b8ff" d="M123.88,-54.95C129.35,-47.1 136.14,-37.35 141.96,-28.99"/>
<polygon fill="#63b8ff" stroke="#63b8ff" points="144.72,-31.15 147.56,-20.94 138.98,-27.15 144.72,-31.15"/>
</a>
</g>
</g>
<!-- Node6 -->
<g id="Node000006" class="node">
<title>Node6</title>
<g id="a_Node000006"><a xlink:title=" ">
<polygon fill="#e0e0e0" stroke="#999999" points="240.25,-19.25 197.25,-19.25 197.25,0 240.25,0 240.25,-19.25"/>
<text text-anchor="middle" x="218.75" y="-5.75" font-family="Helvetica,sans-Serif" font-size="10.00">vector</text>
</a>
</g>
</g>
<!-- Node2&#45;&gt;Node6 -->
<g id="edge5_Node000002_Node000006" class="edge">
<title>Node2&#45;&gt;Node6</title>
<g id="a_edge5_Node000002_Node000006"><a xlink:title=" ">
<path fill="none" stroke="#63b8ff" d="M139.98,-54.8C156.12,-45.74 176.73,-34.19 192.82,-25.16"/>
<polygon fill="#63b8ff" stroke="#63b8ff" points="194.32,-28.34 201.33,-20.39 190.89,-22.23 194.32,-28.34"/>
</a>
</g>
</g>
<!-- Node7&#45;&gt;Node2 -->
<g id="edge8_Node000007_Node000002" class="edge">
<title>Node7&#45;&gt;Node2</title>
<g id="a_edge8_Node000007_Node000002"><a xlink:title=" ">
<path fill="none" stroke="#63b8ff" d="M68.8,-121.43C75.27,-114.24 84.66,-103.81 93.19,-94.34"/>
<polygon fill="#63b8ff" stroke="#63b8ff" points="95.57,-96.93 99.66,-87.16 90.36,-92.25 95.57,-96.93"/>
</a>
</g>
</g>
<!-- Node7&#45;&gt;Node3 -->
<g id="edge7_Node000007_Node000003" class="edge">
<title>Node7&#45;&gt;Node3</title>
<g id="a_edge7_Node000007_Node000003"><a xlink:title=" ">
<path fill="none" stroke="#63b8ff" d="M57.56,-121.55C54.38,-112.59 49.44,-98.3 45.75,-85.75 40.29,-67.2 34.97,-45.79 31.36,-30.59"/>
<polygon fill="#63b8ff" stroke="#63b8ff" points="34.79,-29.89 29.1,-20.95 27.97,-31.48 34.79,-29.89"/>
</a>
</g>
</g>
</g>
</svg>
