<?xml version="1.0" encoding="UTF-8" standalone="no"?>
<!DOCTYPE svg PUBLIC "-//W3C//DTD SVG 1.1//EN"
 "http://www.w3.org/Graphics/SVG/1.1/DTD/svg11.dtd">
<!-- Generated by graphviz version 12.1.2 (20240928.0832)
 -->
<!-- Title: src/binary_search_tree/binary_search_tree.cpp Pages: 1 -->
<svg width="342pt" height="149pt"
 viewBox="0.00 0.00 341.75 149.00" xmlns="http://www.w3.org/2000/svg" xmlns:xlink="http://www.w3.org/1999/xlink">
<g id="graph0" class="graph" transform="scale(1 1) rotate(0) translate(4 145)">
<title>src/binary_search_tree/binary_search_tree.cpp</title>
<!-- Node1 -->
<g id="Node000001" class="node">
<title>Node1</title>
<g id="a_Node000001"><a xlink:title="Binary Search Tree.">
<polygon fill="#999999" stroke="#666666" points="226.12,-141 107.38,-141 107.38,-110.5 226.12,-110.5 226.12,-141"/>
<text text-anchor="start" x="115.38" y="-127.5" font-family="Helvetica,sans-Serif" font-size="10.00">src/binary_search_tree</text>
<text text-anchor="middle" x="166.75" y="-116.25" font-family="Helvetica,sans-Serif" font-size="10.00">/binary_search_tree.cpp</text>
</a>
</g>
</g>
<!-- Node2 -->
<g id="Node000002" class="node">
<title>Node2</title>
<g id="a_Node000002"><a xlink:title=" ">
<polygon fill="#e0e0e0" stroke="#999999" points="53.5,-19.25 0,-19.25 0,0 53.5,0 53.5,-19.25"/>
<text text-anchor="middle" x="26.75" y="-5.75" font-family="Helvetica,sans-Serif" font-size="10.00">iostream</text>
</a>
</g>
</g>
<!-- Node1&#45;&gt;Node2 -->
<g id="edge1_Node000001_Node000002" class="edge">
<title>Node1&#45;&gt;Node2</title>
<g id="a_edge1_Node000001_Node000002"><a xlink:title=" ">
<path fill="none" stroke="#63b8ff" d="M107.76,-110.01C87.14,-102.34 65.28,-91 49.75,-74.5 38.49,-62.54 32.67,-44.68 29.71,-30.88"/>
<polygon fill="#63b8ff" stroke="#63b8ff" points="33.17,-30.36 27.98,-21.13 26.28,-31.58 33.17,-30.36"/>
</a>
</g>
</g>
<!-- Node3 -->
<g id="Node000003" class="node">
<title>Node3</title>
<g id="a_Node000003"><a xlink:title=" ">
<polygon fill="#e0e0e0" stroke="#999999" points="134.25,-19.25 85.25,-19.25 85.25,0 134.25,0 134.25,-19.25"/>
<text text-anchor="middle" x="109.75" y="-5.75" font-family="Helvetica,sans-Serif" font-size="10.00">fstream</text>
</a>
</g>
</g>
<!-- Node1&#45;&gt;Node3 -->
<g id="edge2_Node000001_Node000003" class="edge">
<title>Node1&#45;&gt;Node3</title>
<g id="a_edge2_Node000001_Node000003"><a xlink:title=" ">
<path fill="none" stroke="#63b8ff" d="M106.92,-111.3C87.56,-103.81 68.16,-92.25 56.75,-74.5 45.26,-56.62 64.6,-38.14 83.06,-25.69"/>
<polygon fill="#63b8ff" stroke="#63b8ff" points="84.87,-28.69 91.47,-20.4 81.14,-22.76 84.87,-28.69"/>
</a>
</g>
</g>
<!-- Node4 -->
<g id="Node000004" class="node">
<title>Node4</title>
<g id="a_Node000004"><a xlink:title=" ">
<polygon fill="#e0e0e0" stroke="#999999" points="199.75,-19.25 159.75,-19.25 159.75,0 199.75,0 199.75,-19.25"/>
<text text-anchor="middle" x="179.75" y="-5.75" font-family="Helvetica,sans-Serif" font-size="10.00">string</text>
</a>
</g>
</g>
<!-- Node1&#45;&gt;Node4 -->
<g id="edge3_Node000001_Node000004" class="edge">
<title>Node1&#45;&gt;Node4</title>
<g id="a_edge3_Node000001_Node000004"><a xlink:title=" ">
<path fill="none" stroke="#63b8ff" d="M175.71,-110.43C181.25,-100.7 187.84,-87.32 190.75,-74.5 194.1,-59.7 190.87,-42.76 187.06,-30.05"/>
<polygon fill="#63b8ff" stroke="#63b8ff" points="190.44,-29.13 183.91,-20.79 183.82,-31.39 190.44,-29.13"/>
</a>
</g>
</g>
<!-- Node5 -->
<g id="Node000005" class="node">
<title>Node5</title>
<g id="a_Node000005"><a xlink:title=" ">
<polygon fill="#e0e0e0" stroke="#999999" points="265.25,-19.25 222.25,-19.25 222.25,0 265.25,0 265.25,-19.25"/>
<text text-anchor="middle" x="243.75" y="-5.75" font-family="Helvetica,sans-Serif" font-size="10.00">vector</text>
</a>
</g>
</g>
<!-- Node1&#45;&gt;Node5 -->
<g id="edge4_Node000001_Node000005" class="edge">
<title>Node1&#45;&gt;Node5</title>
<g id="a_edge4_Node000001_Node000005"><a xlink:title=" ">
<path fill="none" stroke="#63b8ff" d="M178.85,-110.16C186.81,-100.32 197.29,-86.91 205.75,-74.5 215.76,-59.82 225.99,-42.46 233.31,-29.54"/>
<polygon fill="#63b8ff" stroke="#63b8ff" points="236.35,-31.27 238.18,-20.84 230.25,-27.86 236.35,-31.27"/>
</a>
</g>
</g>
<!-- Node6 -->
<g id="Node000006" class="node">
<title>Node6</title>
<g id="a_Node000006"><a xlink:title=" ">
<polygon fill="#e0e0e0" stroke="#999999" points="333.75,-74.5 275.75,-74.5 275.75,-55.25 333.75,-55.25 333.75,-74.5"/>
<text text-anchor="middle" x="304.75" y="-61" font-family="Helvetica,sans-Serif" font-size="10.00">functional</text>
</a>
</g>
</g>
<!-- Node1&#45;&gt;Node6 -->
<g id="edge5_Node000001_Node000006" class="edge">
<title>Node1&#45;&gt;Node6</title>
<g id="a_edge5_Node000001_Node000006"><a xlink:title=" ">
<path fill="none" stroke="#63b8ff" d="M201.22,-110.05C223.24,-100.65 251.6,-88.55 273.06,-79.39"/>
<polygon fill="#63b8ff" stroke="#63b8ff" points="274.37,-82.64 282.19,-75.5 271.62,-76.2 274.37,-82.64"/>
</a>
</g>
</g>
<!-- Node7 -->
<g id="Node000007" class="node">
<title>Node7</title>
<g id="a_Node000007"><a xlink:href="binary__search__tree_8hpp.html" target="_top" xlink:title="Binary Search Tree.">
<polygon fill="white" stroke="#666666" points="181.62,-74.5 65.88,-74.5 65.88,-55.25 181.62,-55.25 181.62,-74.5"/>
<text text-anchor="middle" x="123.75" y="-61" font-family="Helvetica,sans-Serif" font-size="10.00">binary_search_tree.hpp</text>
</a>
</g>
</g>
<!-- Node1&#45;&gt;Node7 -->
<g id="edge6_Node000001_Node000007" class="edge">
<title>Node1&#45;&gt;Node7</title>
<g id="a_edge6_Node000001_Node000007"><a xlink:title=" ">
<path fill="none" stroke="#63b8ff" d="M156.12,-110.2C150.39,-102.35 143.27,-92.6 137.16,-84.24"/>
<polygon fill="#63b8ff" stroke="#63b8ff" points="140,-82.18 131.27,-76.17 134.34,-86.31 140,-82.18"/>
</a>
</g>
</g>
<!-- Node7&#45;&gt;Node2 -->
<g id="edge7_Node000007_Node000002" class="edge">
<title>Node7&#45;&gt;Node2</title>
<g id="a_edge7_Node000007_Node000002"><a xlink:title=" ">
<path fill="none" stroke="#63b8ff" d="M107.3,-54.84C92.52,-46.73 70.57,-34.68 53.32,-25.21"/>
<polygon fill="#63b8ff" stroke="#63b8ff" points="55.06,-22.18 44.61,-20.43 51.69,-28.31 55.06,-22.18"/>
</a>
</g>
</g>
<!-- Node7&#45;&gt;Node3 -->
<g id="edge9_Node000007_Node000003" class="edge">
<title>Node7&#45;&gt;Node3</title>
<g id="a_edge9_Node000007_Node000003"><a xlink:title=" ">
<path fill="none" stroke="#63b8ff" d="M121.44,-55.08C119.69,-48.42 117.21,-38.99 114.98,-30.53"/>
<polygon fill="#63b8ff" stroke="#63b8ff" points="118.42,-29.85 112.5,-21.07 111.65,-31.63 118.42,-29.85"/>
</a>
</g>
</g>
<!-- Node7&#45;&gt;Node4 -->
<g id="edge8_Node000007_Node000004" class="edge">
<title>Node7&#45;&gt;Node4</title>
<g id="a_edge8_Node000007_Node000004"><a xlink:title=" ">
<path fill="none" stroke="#63b8ff" d="M133.25,-54.84C141.18,-47.3 152.7,-36.35 162.29,-27.23"/>
<polygon fill="#63b8ff" stroke="#63b8ff" points="164.46,-29.99 169.29,-20.57 159.64,-24.92 164.46,-29.99"/>
</a>
</g>
</g>
<!-- Node7&#45;&gt;Node5 -->
<g id="edge10_Node000007_Node000005" class="edge">
<title>Node7&#45;&gt;Node5</title>
<g id="a_edge10_Node000007_Node000005"><a xlink:title=" ">
<path fill="none" stroke="#63b8ff" d="M144.11,-54.84C162.98,-46.47 191.34,-33.88 212.98,-24.28"/>
<polygon fill="#63b8ff" stroke="#63b8ff" points="214.19,-27.57 221.91,-20.32 211.35,-21.17 214.19,-27.57"/>
</a>
</g>
</g>
</g>
</svg>
