<?xml version="1.0" encoding="UTF-8" standalone="no"?>
<!DOCTYPE svg PUBLIC "-//W3C//DTD SVG 1.1//EN"
 "http://www.w3.org/Graphics/SVG/1.1/DTD/svg11.dtd">
<!-- Generated by graphviz version 12.1.2 (20240928.0832)
 -->
<!-- Title: src/binary_search_tree/binary_search_tree.hpp Pages: 1 -->
<svg width="301pt" height="160pt"
 viewBox="0.00 0.00 300.88 160.25" xmlns="http://www.w3.org/2000/svg" xmlns:xlink="http://www.w3.org/1999/xlink">
<g id="graph0" class="graph" transform="scale(1 1) rotate(0) translate(4 156.25)">
<title>src/binary_search_tree/binary_search_tree.hpp</title>
<!-- Node1 -->
<g id="Node000001" class="node">
<title>Node1</title>
<g id="a_Node000001"><a xlink:title="Binary Search Tree.">
<polygon fill="#999999" stroke="#666666" points="172.88,-152.25 54.12,-152.25 54.12,-121.75 172.88,-121.75 172.88,-152.25"/>
<text text-anchor="start" x="62.12" y="-138.75" font-family="Helvetica,sans-Serif" font-size="10.00">src/binary_search_tree</text>
<text text-anchor="middle" x="113.5" y="-127.5" font-family="Helvetica,sans-Serif" font-size="10.00">/binary_search_tree.hpp</text>
</a>
</g>
</g>
<!-- Node2 -->
<g id="Node000002" class="node">
<title>Node2</title>
<g id="a_Node000002"><a xlink:href="app_8cpp.html" target="_top" xlink:title=" ">
<polygon fill="white" stroke="#666666" points="85,-19.25 0,-19.25 0,0 85,0 85,-19.25"/>
<text text-anchor="middle" x="42.5" y="-5.75" font-family="Helvetica,sans-Serif" font-size="10.00">src/app/app.cpp</text>
</a>
</g>
</g>
<!-- Node1&#45;&gt;Node2 -->
<g id="edge1_Node000001_Node000002" class="edge">
<title>Node1&#45;&gt;Node2</title>
<g id="a_edge1_Node000001_Node000002"><a xlink:title=" ">
<path fill="none" stroke="#63b8ff" d="M86.06,-114.11C77.44,-106.01 68.59,-96.23 62.5,-85.75 49.89,-64.05 45.04,-34.22 43.34,-19.54"/>
<polygon fill="#63b8ff" stroke="#63b8ff" points="83.57,-116.58 93.37,-120.61 88.22,-111.35 83.57,-116.58"/>
</a>
</g>
</g>
<!-- Node3 -->
<g id="Node000003" class="node">
<title>Node3</title>
<g id="a_Node000003"><a xlink:href="app_8hpp.html" target="_top" xlink:title=" ">
<polygon fill="white" stroke="#666666" points="156,-80.12 71,-80.12 71,-60.88 156,-60.88 156,-80.12"/>
<text text-anchor="middle" x="113.5" y="-66.62" font-family="Helvetica,sans-Serif" font-size="10.00">src/app/app.hpp</text>
</a>
</g>
</g>
<!-- Node1&#45;&gt;Node3 -->
<g id="edge2_Node000001_Node000003" class="edge">
<title>Node1&#45;&gt;Node3</title>
<g id="a_edge2_Node000001_Node000003"><a xlink:title=" ">
<path fill="none" stroke="#63b8ff" d="M113.5,-110.09C113.5,-99.51 113.5,-88 113.5,-80.32"/>
<polygon fill="#63b8ff" stroke="#63b8ff" points="110,-109.85 113.5,-119.85 117,-109.85 110,-109.85"/>
</a>
</g>
</g>
<!-- Node5 -->
<g id="Node000005" class="node">
<title>Node5</title>
<g id="a_Node000005"><a xlink:href="binary__search__tree_8cpp.html" target="_top" xlink:title="Binary Search Tree.">
<polygon fill="white" stroke="#666666" points="292.88,-85.75 174.12,-85.75 174.12,-55.25 292.88,-55.25 292.88,-85.75"/>
<text text-anchor="start" x="182.12" y="-72.25" font-family="Helvetica,sans-Serif" font-size="10.00">src/binary_search_tree</text>
<text text-anchor="middle" x="233.5" y="-61" font-family="Helvetica,sans-Serif" font-size="10.00">/binary_search_tree.cpp</text>
</a>
</g>
</g>
<!-- Node1&#45;&gt;Node5 -->
<g id="edge5_Node000001_Node000005" class="edge">
<title>Node1&#45;&gt;Node5</title>
<g id="a_edge5_Node000001_Node000005"><a xlink:title=" ">
<path fill="none" stroke="#63b8ff" d="M150.63,-116.04C168.65,-106.36 189.91,-94.93 206.38,-86.08"/>
<polygon fill="#63b8ff" stroke="#63b8ff" points="149.21,-112.83 142.06,-120.65 152.53,-119 149.21,-112.83"/>
</a>
</g>
</g>
<!-- Node3&#45;&gt;Node2 -->
<g id="edge3_Node000003_Node000002" class="edge">
<title>Node3&#45;&gt;Node2</title>
<g id="a_edge3_Node000003_Node000002"><a xlink:title=" ">
<path fill="none" stroke="#63b8ff" d="M93.98,-53.31C80.9,-42.46 64.16,-28.59 53.38,-19.65"/>
<polygon fill="#63b8ff" stroke="#63b8ff" points="91.62,-55.9 101.55,-59.59 96.09,-50.51 91.62,-55.9"/>
</a>
</g>
</g>
<!-- Node4 -->
<g id="Node000004" class="node">
<title>Node4</title>
<g id="a_Node000004"><a xlink:href="src_2main_8cpp.html" target="_top" xlink:title="Binary Search Tree.">
<polygon fill="white" stroke="#666666" points="174.25,-19.25 102.75,-19.25 102.75,0 174.25,0 174.25,-19.25"/>
<text text-anchor="middle" x="138.5" y="-5.75" font-family="Helvetica,sans-Serif" font-size="10.00">src/main.cpp</text>
</a>
</g>
</g>
<!-- Node3&#45;&gt;Node4 -->
<g id="edge4_Node000003_Node000004" class="edge">
<title>Node3&#45;&gt;Node4</title>
<g id="a_edge4_Node000003_Node000004"><a xlink:title=" ">
<path fill="none" stroke="#63b8ff" d="M121.75,-50.07C126.1,-39.82 131.24,-27.72 134.67,-19.65"/>
<polygon fill="#63b8ff" stroke="#63b8ff" points="118.58,-48.59 117.89,-59.17 125.02,-51.33 118.58,-48.59"/>
</a>
</g>
</g>
</g>
</svg>
